<svg version="1.0" xmlns="http://www.w3.org/2000/svg" xmlns:xlink="https://www.w3.org/1999/xlink" width="860.3" height="567.2"><path fill="#63B6B6" d="M125.875 545.5l9.857-15.892 7.648 4.744-9.857 15.891zM48.307 507.95l16.748-8.319 4.004 8.06-16.748 8.32zM16.911 418.15l16.748-8.319 4.004 8.06-16.748 8.32z"/><defs><path id="a" d="M176.2 503.6c-.5 3.5-.7 5.3-1.2 8.8-6.8-3.8-11.1-4.4-18.6-2.5.5-3.6.7-5.3 1.2-8.9 7.6-1.8 11.8-1.2 18.6 2.6z"/></defs><use xlink:href="#a" overflow="visible" fill="#D9D803"/><defs><path id="b" d="M176.2 503.6c-.5 3.5-.7 5.3-1.2 8.8-6.8-3.8-11.1-4.4-18.6-2.5.5-3.6.7-5.3 1.2-8.9 7.6-1.8 11.8-1.2 18.6 2.6z"/></defs><use xlink:href="#b" overflow="visible" fill="#D9D803"/><clipPath id="c"><use xlink:href="#b" overflow="visible"/></clipPath><g clip-path="url(#c)"><image overflow="visible" width="21" height="13" xlink:href="49EDB09B.png" transform="translate(156.161 500.027)"/></g><defs><path id="d" d="M176.2 503.6c-.5 3.5-.7 5.3-1.2 8.8-6.8-3.8-11.1-4.4-18.6-2.5.5-3.6.7-5.3 1.2-8.9 7.6-1.8 11.8-1.2 18.6 2.6z"/></defs><use xlink:href="#d" overflow="visible" fill="#D9D803"/><defs><path id="e" d="M101.7 504.7c-2.9-2.1-4.3-3.1-7.2-5.2 6.6-4.2 9.1-7.7 11-15.2 2.9 2.1 4.4 3.2 7.3 5.3-2 7.5-4.5 10.9-11.1 15.1z"/></defs><use xlink:href="#e" overflow="visible" fill="#D9D803"/><defs><path id="f" d="M101.7 504.7c-2.9-2.1-4.3-3.1-7.2-5.2 6.6-4.2 9.1-7.7 11-15.2 2.9 2.1 4.4 3.2 7.3 5.3-2 7.5-4.5 10.9-11.1 15.1z"/></defs><use xlink:href="#f" overflow="visible" fill="#D9D803"/><clipPath id="g"><use xlink:href="#f" overflow="visible"/></clipPath><g clip-path="url(#g)"><image overflow="visible" width="19" height="21" xlink:href="49EDB099.png" transform="translate(94.162 484.027)"/></g><defs><path id="h" d="M101.7 504.7c-2.9-2.1-4.3-3.1-7.2-5.2 6.6-4.2 9.1-7.7 11-15.2 2.9 2.1 4.4 3.2 7.3 5.3-2 7.5-4.5 10.9-11.1 15.1z"/></defs><use xlink:href="#h" overflow="visible" fill="#D9D803"/><path fill="#D9D803" d="M18.192 491l14.55-11.748 5.654 7.003-14.55 11.748z"/><path fill="#E16967" d="M41.992 517.476l1.569-18.634 8.968.755-1.569 18.635zM55.173 447.465l17.172-7.403 3.563 8.265-17.172 7.403z"/><path fill="#8CCCEC" d="M61.038 528.158l18.247-4.09 1.969 8.782-18.248 4.09zM109.094 560.545l8.02-16.892 8.13 3.86-8.02 16.892z"/><path fill="#FFD300" d="M112.696 519l1.337-18.651 8.976.643-1.336 18.651zM33.863 424.106l1.335-18.652 8.977.643-1.336 18.652zM200.66 528.464l6.652-17.477 8.318 3.166-6.652 17.477z"/><path fill="#E16967" d="M193.01 552.191l15.358-10.668 5.134 7.392-15.358 10.668zM63.969 558.454l6.934-17.366 8.265 3.3-6.934 17.367z"/><path fill="#63B6B6" d="M450.562 474.727l7.297-17.217 8.287 3.512-7.297 17.217zM606.845 413.699l7.297-17.217 8.286 3.511-7.297 17.218zM278.504 559.41l2.893-18.475 8.793 1.377-2.893 18.476z"/><defs><path id="i" d="M325.6 519.4l-1 9c-6.8-3.6-11.1-4.2-18.6-2.2.4-3.5.6-5.3 1-8.8 7.5-2.1 11.8-1.6 18.6 2z"/></defs><use xlink:href="#i" overflow="visible" fill="#63B6B6"/><defs><path id="j" d="M325.6 519.4l-1 9c-6.8-3.6-11.1-4.2-18.6-2.2.4-3.5.6-5.3 1-8.8 7.5-2.1 11.8-1.6 18.6 2z"/></defs><use xlink:href="#j" overflow="visible" fill="#63B6B6"/><clipPath id="k"><use xlink:href="#j" overflow="visible"/></clipPath><g clip-path="url(#k)"><image overflow="visible" width="21" height="13" xlink:href="49EDB09F.png" transform="translate(305.161 516.027)"/></g><defs><path id="l" d="M325.6 519.4l-1 9c-6.8-3.6-11.1-4.2-18.6-2.2.4-3.5.6-5.3 1-8.8 7.5-2.1 11.8-1.6 18.6 2z"/></defs><use xlink:href="#l" overflow="visible" fill="#63B6B6"/><defs><path id="m" d="M116.5 229.7l-1 9c-6.8-3.6-11.1-4.2-18.6-2.2.4-3.5.6-5.3 1-8.8 7.5-2.1 11.8-1.6 18.6 2z"/></defs><use xlink:href="#m" overflow="visible" fill="#63B6B6"/><defs><path id="n" d="M116.5 229.7l-1 9c-6.8-3.6-11.1-4.2-18.6-2.2.4-3.5.6-5.3 1-8.8 7.5-2.1 11.8-1.6 18.6 2z"/></defs><use xlink:href="#n" overflow="visible" fill="#63B6B6"/><clipPath id="o"><use xlink:href="#n" overflow="visible"/></clipPath><g clip-path="url(#o)"><image overflow="visible" width="21" height="13" xlink:href="49EDB098.png" transform="translate(96.162 226.027)"/></g><defs><path id="p" d="M116.5 229.7l-1 9c-6.8-3.6-11.1-4.2-18.6-2.2.4-3.5.6-5.3 1-8.8 7.5-2.1 11.8-1.6 18.6 2z"/></defs><use xlink:href="#p" overflow="visible" fill="#63B6B6"/><path fill="#63B6B6" d="M177.734 452.807l9.857-15.892 7.648 4.744-9.857 15.892zM100.216 415.22l16.747-8.32 4.004 8.06-16.747 8.32zM68.789 325.425l16.748-8.318 4.003 8.06-16.748 8.319zM45.481 229.906l16.748-8.318 4.003 8.06-16.747 8.318zM133.07 303.443l16.748-8.317 4.003 8.06-16.748 8.318z"/><path fill="#D9D803" d="M347.477 517.03l18.518-2.598 1.237 8.813-18.519 2.598zM413.272 326.824l18.518-2.598 1.237 8.814-18.52 2.598zM463.275 152.932l18.518-2.597 1.236 8.813-18.518 2.598zM436.275 500.825l18.518-2.598 1.236 8.814-18.518 2.597zM199.73 527.64l7.782-17.005 8.092 3.704-7.78 17.003zM70.025 398.147l14.549-11.748 5.653 7.002L75.68 405.15zM228.466 253.953l14.549-11.75 5.655 7.003-14.549 11.75zM324.58 174.793l14.548-11.749 5.655 7.002-14.549 11.75zM27.648 351.298l18.698-.218.105 9-18.698.217zM16.564 288.575l6.161-17.654 8.497 2.965-6.161 17.655zM114.85 178.215l18.036-4.936 2.376 8.68-18.036 4.937zM91.53 190.944l6.16-17.657 8.497 2.965-6.16 17.656z"/><path fill="#E16967" d="M839.748 515.974l15.358-10.667 5.134 7.392-15.359 10.666zM509.896 559.182l15.634-10.263 4.939 7.524-15.633 10.263zM567.892 320.162l15.634-10.262 4.939 7.524-15.633 10.262zM749.423 494.208l.123-18.7 9 .06-.123 18.7zM245.816 559.894l15.358-10.668 5.135 7.391-15.359 10.669zM223.893 489.025l1.57-18.634 8.968.755-1.57 18.634zM93.872 424.785l1.57-18.635 8.969.756-1.57 18.635zM107.013 354.782l17.173-7.405 3.564 8.264-17.173 7.406zM229.457 189.11l8.258-16.777 8.075 3.974-8.258 16.778z"/><path fill="#8CCCEC" d="M207.267 481.177l18.248-4.092 1.969 8.782-18.248 4.092zM112.858 435.367l18.247-4.092 1.97 8.782-18.248 4.092zM9.831 314.873l18.248-4.09 1.968 8.782-18.248 4.09zM160.884 467.854l8.022-16.892 8.13 3.86-8.022 16.893z"/><path fill="#FFD300" d="M321.375 559.19l16.654-8.505 4.093 8.016-16.654 8.505zM563.55 491.49l16.118-8.235 3.958 7.747-16.118 8.235zM230.146 513.14l16.652-8.506 4.095 8.015-16.653 8.506zM161.876 410.471l8.26-3.576 7.431 17.16-8.26 3.577zM207.854 306.448l8.168-3.536 7.431 17.16-8.167 3.537zM345.155 3.567l8.167-3.536 7.43 17.161-8.168 3.536zM41.86 398.478l1.334-18.651 8.977.642-1.335 18.652zM85.656 331.31l1.336-18.65 8.977.642-1.336 18.652z"/><path fill="#D9D803" d="M238.07 484.603l7.288-17.221 8.196 3.468-7.287 17.22z"/><path fill="#FFD300" d="M252.564 435.687l6.652-17.477 8.41 3.201-6.65 17.477z"/><path fill="#E16967" d="M244.907 459.425l15.358-10.666 5.134 7.391-15.358 10.667z"/><path fill="#FFD300" d="M244.842 511.512l6.65-17.477 8.318 3.165-6.65 17.477z"/><path fill="#8CCCEC" d="M278.442 514.146l8.666-16.57 7.886 4.124-8.665 16.57z"/><path fill="#FFD300" d="M294.582 486.152l1.487-8.775 18.438 3.123-1.487 8.775zM402.391 414.863l1.486-8.776 18.439 3.123-1.487 8.776z"/><defs><path id="q" d="M8.8 454.4c-3.4-1-5.1-1.5-8.6-2.5-.7-7.7.5-11.9 5.2-18 3.4 1 5.2 1.5 8.6 2.5-4.7 6.2-5.9 10.3-5.2 18z"/></defs><use xlink:href="#q" overflow="visible" fill="#E16967"/><defs><path id="r" d="M8.8 454.4c-3.4-1-5.1-1.5-8.6-2.5-.7-7.7.5-11.9 5.2-18 3.4 1 5.2 1.5 8.6 2.5-4.7 6.2-5.9 10.3-5.2 18z"/></defs><use xlink:href="#r" overflow="visible" fill="#E16967"/><clipPath id="s"><use xlink:href="#r" overflow="visible"/></clipPath><g clip-path="url(#s)"><image overflow="visible" width="15" height="22" xlink:href="49EDB096.png" transform="translate(-.839 433.027)"/></g><defs><path id="t" d="M8.8 454.4c-3.4-1-5.1-1.5-8.6-2.5-.7-7.7.5-11.9 5.2-18 3.4 1 5.2 1.5 8.6 2.5-4.7 6.2-5.9 10.3-5.2 18z"/></defs><use xlink:href="#t" overflow="visible" fill="#E16967"/><path fill="#E16967" d="M193.819 536.647l14.072-12.316 5.861 6.697-14.072 12.316zM115.766 465.62l6.932-17.367 8.358 3.336-6.932 17.367zM152.611 476.368L167.97 465.7l5.077 7.31-15.358 10.668zM238.23 402.117l15.357-10.67 5.078 7.308-15.356 10.67zM47.768 390.546L61.84 378.23l5.861 6.697-14.072 12.316zM6.635 330.326l15.358-10.669 5.077 7.31-15.358 10.668zM95.22 252.474l15.36-10.666 5.076 7.31-15.36 10.667zM207.713 93.329l15.36-10.666 5.077 7.31-15.36 10.667z"/><circle fill="#FFD300" cx="278.7" cy="112.9" r="4.4"/><circle fill="#FFD300" cx="10.7" cy="514.8" r="4.4"/><path fill="#E16967" d="M43.3 544c1.7.7 2.4 3.1 1.5 5.3-.9 2.2-3.1 3.5-4.8 2.8-1.7-.7-2.4-3.1-1.5-5.3.9-2.3 3-3.6 4.8-2.8zM153.1 203.6c1.7.7 2.4 3.1 1.5 5.3-.9 2.2-3.1 3.5-4.8 2.8-1.7-.7-2.4-3.1-1.5-5.3.9-2.3 3.1-3.5 4.8-2.8z"/><path fill="#63B6B6" d="M267.5 356.6c.6-2.3 3.4-3.5 6.3-2.8 2.9.7 4.8 3.2 4.2 5.4-.6 2.3-3.4 3.5-6.3 2.8-2.9-.7-4.8-3.2-4.2-5.4z"/><circle fill="#63B6B6" cx="396.1" cy="540" r="5"/><circle fill="#D9D803" cx="633.7" cy="521.6" r="5"/><path fill="#63B6B6" d="M125.875 545.5l9.857-15.892 7.648 4.744-9.857 15.891zM48.307 507.95l16.748-8.319 4.004 8.06-16.748 8.32zM16.911 418.15l16.748-8.319 4.004 8.06-16.748 8.32z"/><defs><path id="u" d="M176.2 503.6c-.5 3.5-.7 5.3-1.2 8.8-6.8-3.8-11.1-4.4-18.6-2.5.5-3.6.7-5.3 1.2-8.9 7.6-1.8 11.8-1.2 18.6 2.6z"/></defs><use xlink:href="#u" overflow="visible" fill="#D9D803"/><defs><path id="v" d="M176.2 503.6c-.5 3.5-.7 5.3-1.2 8.8-6.8-3.8-11.1-4.4-18.6-2.5.5-3.6.7-5.3 1.2-8.9 7.6-1.8 11.8-1.2 18.6 2.6z"/></defs><use xlink:href="#v" overflow="visible" fill="#D9D803"/><clipPath id="w"><use xlink:href="#v" overflow="visible"/></clipPath><g clip-path="url(#w)"><image overflow="visible" width="21" height="13" xlink:href="49EDB097.png" transform="translate(156.161 500.027)"/></g><defs><path id="x" d="M176.2 503.6c-.5 3.5-.7 5.3-1.2 8.8-6.8-3.8-11.1-4.4-18.6-2.5.5-3.6.7-5.3 1.2-8.9 7.6-1.8 11.8-1.2 18.6 2.6z"/></defs><use xlink:href="#x" overflow="visible" fill="#D9D803"/><defs><path id="y" d="M101.7 504.7c-2.9-2.1-4.3-3.1-7.2-5.2 6.6-4.2 9.1-7.7 11-15.2 2.9 2.1 4.4 3.2 7.3 5.3-2 7.5-4.5 10.9-11.1 15.1z"/></defs><use xlink:href="#y" overflow="visible" fill="#D9D803"/><defs><path id="z" d="M101.7 504.7c-2.9-2.1-4.3-3.1-7.2-5.2 6.6-4.2 9.1-7.7 11-15.2 2.9 2.1 4.4 3.2 7.3 5.3-2 7.5-4.5 10.9-11.1 15.1z"/></defs><use xlink:href="#z" overflow="visible" fill="#D9D803"/><clipPath id="A"><use xlink:href="#z" overflow="visible"/></clipPath><g clip-path="url(#A)"><image overflow="visible" width="19" height="21" xlink:href="49EDB0A7.png" transform="translate(94.162 484.027)"/></g><defs><path id="B" d="M101.7 504.7c-2.9-2.1-4.3-3.1-7.2-5.2 6.6-4.2 9.1-7.7 11-15.2 2.9 2.1 4.4 3.2 7.3 5.3-2 7.5-4.5 10.9-11.1 15.1z"/></defs><use xlink:href="#B" overflow="visible" fill="#D9D803"/><path fill="#D9D803" d="M18.192 491l14.55-11.748 5.654 7.003-14.55 11.748z"/><path fill="#E16967" d="M41.992 517.476l1.569-18.634 8.968.755-1.569 18.635zM55.173 447.465l17.172-7.403 3.563 8.265-17.172 7.403z"/><path fill="#8CCCEC" d="M61.038 528.158l18.247-4.09 1.969 8.782-18.248 4.09zM109.094 560.545l8.02-16.892 8.13 3.86-8.02 16.892z"/><path fill="#FFD300" d="M112.696 519l1.337-18.651 8.976.643-1.336 18.651zM33.863 424.106l1.335-18.652 8.977.643-1.336 18.652zM200.66 528.464l6.652-17.477 8.318 3.166-6.652 17.477z"/><path fill="#E16967" d="M193.01 552.191l15.358-10.668 5.134 7.392-15.358 10.668zM63.969 558.454l6.934-17.366 8.265 3.3-6.934 17.367z"/><path fill="#63B6B6" d="M450.562 474.727l7.297-17.217 8.287 3.512-7.297 17.217zM606.845 413.699l7.297-17.217 8.286 3.511-7.297 17.218zM278.504 559.41l2.893-18.475 8.793 1.377-2.893 18.476z"/><defs><path id="C" d="M325.6 519.4l-1 9c-6.8-3.6-11.1-4.2-18.6-2.2.4-3.5.6-5.3 1-8.8 7.5-2.1 11.8-1.6 18.6 2z"/></defs><use xlink:href="#C" overflow="visible" fill="#63B6B6"/><defs><path id="D" d="M325.6 519.4l-1 9c-6.8-3.6-11.1-4.2-18.6-2.2.4-3.5.6-5.3 1-8.8 7.5-2.1 11.8-1.6 18.6 2z"/></defs><use xlink:href="#D" overflow="visible" fill="#63B6B6"/><clipPath id="E"><use xlink:href="#D" overflow="visible"/></clipPath><g clip-path="url(#E)"><image overflow="visible" width="21" height="13" xlink:href="49EDB0A9.png" transform="translate(305.161 516.027)"/></g><defs><path id="F" d="M325.6 519.4l-1 9c-6.8-3.6-11.1-4.2-18.6-2.2.4-3.5.6-5.3 1-8.8 7.5-2.1 11.8-1.6 18.6 2z"/></defs><use xlink:href="#F" overflow="visible" fill="#63B6B6"/><defs><path id="G" d="M116.5 229.7l-1 9c-6.8-3.6-11.1-4.2-18.6-2.2.4-3.5.6-5.3 1-8.8 7.5-2.1 11.8-1.6 18.6 2z"/></defs><use xlink:href="#G" overflow="visible" fill="#63B6B6"/><defs><path id="H" d="M116.5 229.7l-1 9c-6.8-3.6-11.1-4.2-18.6-2.2.4-3.5.6-5.3 1-8.8 7.5-2.1 11.8-1.6 18.6 2z"/></defs><use xlink:href="#H" overflow="visible" fill="#63B6B6"/><clipPath id="I"><use xlink:href="#H" overflow="visible"/></clipPath><g clip-path="url(#I)"><image overflow="visible" width="21" height="13" xlink:href="49EDB0AB.png" transform="translate(96.162 226.027)"/></g><g><defs><path id="J" d="M116.5 229.7l-1 9c-6.8-3.6-11.1-4.2-18.6-2.2.4-3.5.6-5.3 1-8.8 7.5-2.1 11.8-1.6 18.6 2z"/></defs><use xlink:href="#J" overflow="visible" fill="#63B6B6"/></g><path fill="#63B6B6" d="M177.734 452.807l9.857-15.892 7.648 4.744-9.857 15.892zM100.216 415.22l16.747-8.32 4.004 8.06-16.747 8.32zM68.789 325.425l16.748-8.318 4.003 8.06-16.748 8.319zM45.481 229.906l16.748-8.318 4.003 8.06-16.747 8.318zM133.07 303.443l16.748-8.317 4.003 8.06-16.748 8.318z"/><g><path fill="#D9D803" d="M347.477 517.03l18.518-2.598 1.237 8.813-18.519 2.598z"/></g><g><path fill="#D9D803" d="M413.272 326.824l18.518-2.598 1.237 8.814-18.52 2.598z"/></g><g><path fill="#D9D803" d="M463.275 152.932l18.518-2.597 1.236 8.813-18.518 2.598z"/></g><g><path fill="#D9D803" d="M436.275 500.825l18.518-2.598 1.236 8.814-18.518 2.597z"/></g><g><path fill="#D9D803" d="M199.73 527.64l7.782-17.005 8.092 3.704-7.78 17.003z"/></g><g><path fill="#D9D803" d="M70.025 398.147l14.549-11.748 5.653 7.002L75.68 405.15z"/></g><g><path fill="#D9D803" d="M228.466 253.953l14.549-11.75 5.655 7.003-14.549 11.75z"/></g><g><path fill="#D9D803" d="M324.58 174.793l14.548-11.749 5.655 7.002-14.549 11.75z"/></g><g><path fill="#D9D803" d="M27.648 351.298l18.698-.218.105 9-18.698.217z"/></g><g><path fill="#D9D803" d="M16.564 288.575l6.161-17.654 8.497 2.965-6.161 17.655z"/></g><g><path fill="#D9D803" d="M114.85 178.215l18.036-4.936 2.376 8.68-18.036 4.937z"/></g><g><path fill="#D9D803" d="M91.53 190.944l6.16-17.657 8.497 2.965-6.16 17.656z"/></g><g><path fill="#E16967" d="M839.748 515.974l15.358-10.667 5.134 7.392-15.359 10.666z"/></g><g><path fill="#E16967" d="M509.896 559.182l15.634-10.263 4.939 7.524-15.633 10.263z"/></g><g><path fill="#E16967" d="M567.892 320.162l15.634-10.262 4.939 7.524-15.633 10.262z"/></g><g><path fill="#E16967" d="M749.423 494.208l.123-18.7 9 .06-.123 18.7z"/></g><g><path fill="#E16967" d="M245.816 559.894l15.358-10.668 5.135 7.391-15.359 10.669z"/></g><g><path fill="#E16967" d="M223.893 489.025l1.57-18.634 8.968.755-1.57 18.634z"/></g><g><path fill="#E16967" d="M93.872 424.785l1.57-18.635 8.969.756-1.57 18.635z"/></g><g><path fill="#E16967" d="M107.013 354.782l17.173-7.405 3.564 8.264-17.173 7.406z"/></g><g><path fill="#E16967" d="M229.457 189.11l8.258-16.777 8.075 3.974-8.258 16.778z"/></g><g><path fill="#8CCCEC" d="M207.267 481.177l18.248-4.092 1.969 8.782-18.248 4.092z"/></g><g><path fill="#8CCCEC" d="M112.858 435.367l18.247-4.092 1.97 8.782-18.248 4.092z"/></g><g><path fill="#8CCCEC" d="M9.831 314.873l18.248-4.09 1.968 8.782-18.248 4.09z"/></g><g><path fill="#8CCCEC" d="M160.884 467.854l8.022-16.892 8.13 3.86-8.022 16.893z"/></g><path fill="#FFD300" d="M321.375 559.19l16.654-8.505 4.093 8.016-16.654 8.505zM563.55 491.49l16.118-8.235 3.958 7.747-16.118 8.235zM230.146 513.14l16.652-8.506 4.095 8.015-16.653 8.506zM161.876 410.471l8.26-3.576 7.431 17.16-8.26 3.577zM207.854 306.448l8.168-3.536 7.431 17.16-8.167 3.537zM345.155 3.567l8.167-3.536 7.43 17.161-8.168 3.536zM41.86 398.478l1.334-18.651 8.977.642-1.335 18.652zM85.656 331.31l1.336-18.65 8.977.642-1.336 18.652z"/><g><path fill="#D9D803" d="M238.07 484.603l7.288-17.221 8.196 3.468-7.287 17.22z"/></g><path fill="#FFD300" d="M252.564 435.687l6.652-17.477 8.41 3.201-6.65 17.477z"/><g><path fill="#E16967" d="M244.907 459.425l15.358-10.666 5.134 7.391-15.358 10.667z"/></g><path fill="#FFD300" d="M244.842 511.512l6.65-17.477 8.318 3.165-6.65 17.477z"/><g><path fill="#8CCCEC" d="M278.442 514.146l8.666-16.57 7.886 4.124-8.665 16.57z"/></g><path fill="#FFD300" d="M294.582 486.152l1.487-8.775 18.438 3.123-1.487 8.775zM402.391 414.863l1.486-8.776 18.439 3.123-1.487 8.776z"/><g><defs><path id="K" d="M8.8 454.4c-3.4-1-5.1-1.5-8.6-2.5-.7-7.7.5-11.9 5.2-18 3.4 1 5.2 1.5 8.6 2.5-4.7 6.2-5.9 10.3-5.2 18z"/></defs><use xlink:href="#K" overflow="visible" fill="#E16967"/><defs><path id="L" d="M8.8 454.4c-3.4-1-5.1-1.5-8.6-2.5-.7-7.7.5-11.9 5.2-18 3.4 1 5.2 1.5 8.6 2.5-4.7 6.2-5.9 10.3-5.2 18z"/></defs><use xlink:href="#L" overflow="visible" fill="#E16967"/><clipPath id="M"><use xlink:href="#L" overflow="visible"/></clipPath><g clip-path="url(#M)"><image overflow="visible" width="15" height="22" xlink:href="AF5A8678.png" transform="translate(-.839 433.027)"/></g><g><defs><path id="N" d="M8.8 454.4c-3.4-1-5.1-1.5-8.6-2.5-.7-7.7.5-11.9 5.2-18 3.4 1 5.2 1.5 8.6 2.5-4.7 6.2-5.9 10.3-5.2 18z"/></defs><use xlink:href="#N" overflow="visible" fill="#E16967"/></g></g><g><path fill="#E16967" d="M193.819 536.647l14.072-12.316 5.861 6.697-14.072 12.316z"/></g><g><path fill="#E16967" d="M115.766 465.62l6.932-17.367 8.358 3.336-6.932 17.367z"/></g><g><path fill="#E16967" d="M152.611 476.368L167.97 465.7l5.077 7.31-15.358 10.668z"/></g><g><path fill="#E16967" d="M238.23 402.117l15.357-10.67 5.078 7.308-15.356 10.67z"/></g><g><path fill="#E16967" d="M47.768 390.546L61.84 378.23l5.861 6.697-14.072 12.316z"/></g><g><path fill="#E16967" d="M6.635 330.326l15.358-10.669 5.077 7.31-15.358 10.668z"/></g><g><path fill="#E16967" d="M95.22 252.474l15.36-10.666 5.076 7.31-15.36 10.667z"/></g><g><path fill="#E16967" d="M207.713 93.329l15.36-10.666 5.077 7.31-15.36 10.667z"/></g><circle fill="#FFD300" cx="278.7" cy="112.9" r="4.4"/><circle fill="#FFD300" cx="10.7" cy="514.8" r="4.4"/><g><path fill="#E16967" d="M43.3 544c1.7.7 2.4 3.1 1.5 5.3-.9 2.2-3.1 3.5-4.8 2.8-1.7-.7-2.4-3.1-1.5-5.3.9-2.3 3-3.6 4.8-2.8z"/></g><g><path fill="#E16967" d="M153.1 203.6c1.7.7 2.4 3.1 1.5 5.3-.9 2.2-3.1 3.5-4.8 2.8-1.7-.7-2.4-3.1-1.5-5.3.9-2.3 3.1-3.5 4.8-2.8z"/></g><path fill="#63B6B6" d="M267.5 356.6c.6-2.3 3.4-3.5 6.3-2.8 2.9.7 4.8 3.2 4.2 5.4-.6 2.3-3.4 3.5-6.3 2.8-2.9-.7-4.8-3.2-4.2-5.4z"/><circle fill="#63B6B6" cx="396.1" cy="540" r="5"/><g><circle fill="#D9D803" cx="633.7" cy="521.6" r="5"/></g></svg>